<svg width="66" height="31" viewBox="0 0 66 31" fill="none" xmlns="http://www.w3.org/2000/svg">
  <path d="M22.0367 16.642C28.0681 9.84191 20.0242 -0.199543 12.0718 4.20246V4.20246V27.877L22.0367 16.642Z" fill="url(#paint0_linear_139_847)"/>
  <path d="M2.10681 16.642C-3.92457 9.84191 4.11935 -0.199543 12.0718 4.20246V4.20246V27.877L2.10681 16.642Z" fill="url(#paint1_linear_139_847)"/>
  <path d="M20.9124 12.7606C20.7224 12.9386 20.4983 13.0954 20.2887 13.2564C20.0402 13.4514 19.782 13.6421 19.5238 13.8329C19.0463 14.1804 18.5541 14.5195 18.0718 14.867C17.9792 14.6551 17.7745 14.4771 17.5602 14.3542C17.2386 14.1677 16.8488 14.0702 16.4541 14.0236C16.6977 13.7481 17.1021 13.6379 17.453 13.5023C17.8622 13.3455 18.1887 13.0996 18.5395 12.8623C18.8855 12.6292 19.2606 12.4172 19.704 12.3918C20.1279 12.3579 20.6444 12.4639 20.9124 12.7606Z" fill="#FCFCFC"/>
  <path d="M20.3964 12.0229C20.3623 12.1119 20.2892 12.1925 20.2258 12.2687C20.1089 12.2476 19.9871 12.2348 19.8702 12.2306C19.378 12.2052 18.9346 12.4128 18.5497 12.6587C18.1648 12.9087 17.8189 13.1927 17.3755 13.3622C16.9613 13.5191 16.5228 13.6547 16.2597 13.9938C16.2597 13.9938 16.2597 13.9938 16.2597 13.998C16.133 13.9853 16.0014 13.9768 15.8796 13.9726C15.8358 13.9726 15.7968 13.9683 15.7529 13.9683C16.0453 13.6928 16.4107 13.4852 16.7761 13.2902C17.1806 13.074 17.5655 12.8452 17.9358 12.5866C18.3061 12.3281 18.6862 12.0568 19.1344 11.9085C19.534 11.7856 20.0748 11.7432 20.3964 12.0229Z" fill="#FCFCFC"/>
  <path d="M18.9199 11.8195C18.574 11.9552 18.2621 12.1629 17.9747 12.3663C17.7798 12.5019 17.5946 12.6376 17.3948 12.7605C17.1853 12.8919 16.9661 13.0105 16.7419 13.1292C16.3034 13.3666 15.8551 13.6124 15.5238 13.9684C15.2022 13.9684 14.8758 13.9896 14.5542 14.0108C14.8417 13.7607 15.1779 13.5573 15.5043 13.3538C15.8795 13.1165 16.2157 12.8537 16.5568 12.574C16.8881 12.307 17.2389 12.0442 17.6628 11.9001C18.0526 11.7687 18.5058 11.7433 18.9199 11.8195Z" fill="#FCFCFC"/>
  <path d="M13.5065 15.7146C13.487 15.7103 13.4675 15.7103 13.4529 15.7061C13.3359 15.6976 13.2239 15.6892 13.1069 15.6849L12.8146 15.6722C12.8097 15.668 12.7707 15.6764 12.7707 15.6722C12.6148 15.668 12.4589 15.668 12.303 15.6764L12.1373 15.6849C11.9911 15.6934 11.8498 15.7061 11.7037 15.7231C11.0507 15.8036 10.4368 15.9774 9.84724 16.2274C9.74492 16.2698 9.65722 16.1384 9.75954 16.096C10.4124 15.8163 11.1043 15.6256 11.8303 15.5578C12.3858 15.5027 12.9413 15.5154 13.4967 15.5578C13.5065 15.5578 13.5162 15.5578 13.526 15.562C13.6088 15.5705 13.6867 15.5747 13.7696 15.5832C14.3153 15.6383 14.8513 15.7273 15.397 15.7697C15.9476 15.8121 16.5274 15.8248 17.0536 15.6637C17.4629 15.5408 18.0671 15.367 17.9355 14.9093C17.8088 14.4685 17.2436 14.3753 16.7856 14.2608C16.1717 14.1082 15.5285 14.0998 14.9 14.1167C14.2714 14.1337 13.6429 14.032 13.0143 14.0192C12.4248 14.0065 11.8206 13.8031 11.2992 13.5403C11.2944 13.5403 11.2846 13.5361 11.2797 13.5318C11.2749 13.5318 11.2749 13.5276 11.27 13.5276L11.2651 13.5233C10.4076 13.0105 9.48668 12.3451 8.39525 12.3154C7.8203 12.2985 7.26971 12.4341 6.70938 12.5316C6.43652 12.5782 6.15392 12.6291 5.87619 12.6333C5.59846 12.6375 5.32073 12.6333 5.043 12.6333C4.39496 12.6291 3.75179 12.6587 3.14274 12.8664C2.55804 13.0614 2.00258 13.3157 1.49097 13.6293C0.974492 13.9429 0.540843 14.3202 0.0877043 14.6931C0.0584695 14.7186 0.0292348 14.7398 0 14.7652L2.36802 17.8422C2.50932 17.7532 2.65549 17.6685 2.81141 17.5964C3.36687 17.3336 3.96618 17.2107 4.59473 17.215C5.2379 17.2234 5.88106 17.3209 6.50473 17.4481C7.2015 17.5879 7.89339 17.7532 8.58528 17.9143C9.27229 18.0711 9.96418 18.2237 10.6707 18.3254C11.3528 18.4229 12.0788 18.4822 12.7561 18.3509C12.761 18.3509 12.7707 18.3509 12.7756 18.3509C13.4188 18.016 13.9547 17.554 14.4858 17.0963C14.7489 16.8674 15.0169 16.6385 15.2947 16.4266C15.509 16.2613 15.7332 16.0918 15.9768 15.9562C15.2995 15.9562 14.6125 15.8375 13.945 15.757L13.5065 15.7146Z" fill="#FCFCFC"/>
  <path d="M14.6025 13.7066C14.6076 13.7066 14.6127 13.7066 14.6177 13.7066V13.6929C14.6127 13.6974 14.6076 13.702 14.6025 13.7066Z" fill="#FCFCFC"/>
  <path d="M35.585 7.13602C35.585 7.61616 35.4955 8.01077 35.3164 8.31983C35.1428 8.63441 34.9177 8.88001 34.641 9.05661C34.3697 9.23322 34.0442 9.38499 33.6644 9.51193L33.2656 8.43573C33.4989 8.34191 33.6725 8.23153 33.7865 8.10459C33.9058 7.98318 33.9845 7.8452 34.0225 7.69067C34.0605 7.53062 34.0794 7.32642 34.0794 7.07807V2.27657H35.585V7.13602Z" fill="white"/>
  <path d="M38.8101 2.12756C39.6293 2.12756 40.2668 2.39247 40.7225 2.92229C41.1783 3.45211 41.4062 4.19441 41.4062 5.14919C41.4062 5.77283 41.3031 6.31369 41.0969 6.77176C40.8962 7.22432 40.6005 7.57201 40.2098 7.81485C39.8192 8.05768 39.3526 8.1791 38.8101 8.1791C37.9908 8.1791 37.3533 7.91419 36.8976 7.38437C36.4473 6.85455 36.2221 6.10949 36.2221 5.14919C36.2221 4.52555 36.3225 3.98745 36.5232 3.53489C36.7294 3.08234 37.0251 2.73464 37.4103 2.49181C37.8009 2.24898 38.2675 2.12756 38.8101 2.12756ZM38.8101 3.22859C38.4574 3.22859 38.197 3.3776 38.0288 3.67563C37.866 3.97365 37.7847 4.46484 37.7847 5.14919C37.7847 5.83354 37.8688 6.32749 38.0369 6.63103C38.2051 6.92905 38.4628 7.07807 38.8101 7.07807C39.1682 7.07807 39.4286 6.92905 39.5913 6.63103C39.7541 6.33301 39.8355 5.83906 39.8355 5.14919C39.8355 4.46484 39.7541 3.97365 39.5913 3.67563C39.4286 3.3776 39.1682 3.22859 38.8101 3.22859ZM39.4774 0L39.9982 1.08448L37.9881 1.82126L37.6219 1.0762L39.4774 0Z" fill="white"/>
  <path d="M43.5663 2.27657V6.83799H45.7392L45.5764 8.03009H42.0607V2.27657H43.5663Z" fill="white"/>
  <path d="M51.0871 8.03009L50.8348 6.85455H49.3374L49.0851 8.03009H47.5226L49.199 2.27657H51.0057L52.6822 8.03009H51.0871ZM49.5734 5.76179H50.5988L50.0861 3.36932L49.5734 5.76179Z" fill="white"/>
  <path d="M54.6573 2.27657C55.5525 2.27657 56.2714 2.48353 56.8139 2.89745C57.3565 3.30586 57.6278 4.05092 57.6278 5.13263C57.6278 7.06427 56.6756 8.03009 54.7713 8.03009H52.9646V2.27657H54.6573ZM54.4701 3.36932V6.93733H54.8608C55.2731 6.93733 55.5769 6.80488 55.7723 6.53997C55.973 6.27506 56.0734 5.80595 56.0734 5.13263C56.0734 4.66904 56.0245 4.31031 55.9269 4.05644C55.8346 3.79704 55.699 3.61768 55.52 3.51834C55.3464 3.419 55.1239 3.36932 54.8526 3.36932H54.4701Z" fill="white"/>
  <path d="M62.7572 8.03009H60.861L59.4287 3.70046L59.4531 3.87431C59.5074 4.25512 59.5481 4.61385 59.5752 4.95051C59.6078 5.28164 59.624 5.65969 59.624 6.08465V8.03009H58.2894V2.27657H60.1449L61.626 6.62275C61.5609 6.20883 61.5094 5.8363 61.4714 5.50516C61.4388 5.17403 61.4226 4.79322 61.4226 4.36274V2.27657H62.7572V8.03009Z" fill="white"/>
  <path d="M65.1436 2.27657V8.03009H63.638V2.27657H65.1436Z" fill="white"/>
  <path d="M37.7823 26.2482C37.7823 27.2085 37.6033 27.9977 37.2452 28.6158C36.898 29.245 36.4477 29.7362 35.8943 30.0894C35.3517 30.4426 34.7007 30.7461 33.9411 31L33.1436 28.8476C33.6101 28.66 33.9574 28.4392 34.1852 28.1853C34.424 27.9425 34.5813 27.6665 34.6573 27.3575C34.7332 27.0374 34.7712 26.629 34.7712 26.1323V16.5293H37.7823V26.2482Z" fill="white"/>
  <path d="M44.2325 16.2313C45.8709 16.2313 47.1459 16.7611 48.0574 17.8207C48.9689 18.8804 49.4246 20.365 49.4246 22.2745C49.4246 23.5218 49.2184 24.6035 48.8061 25.5197C48.4046 26.4248 47.8133 27.1202 47.032 27.6058C46.2507 28.0915 45.3175 28.3343 44.2325 28.3343C42.594 28.3343 41.319 27.8045 40.4075 26.7449C39.5069 25.6852 39.0566 24.1951 39.0566 22.2745C39.0566 21.0272 39.2573 19.951 39.6588 19.0459C40.0711 18.1408 40.6625 17.4454 41.4329 16.9598C42.2142 16.4741 43.1474 16.2313 44.2325 16.2313ZM44.2325 18.4333C43.5271 18.4333 43.0063 18.7313 42.6699 19.3274C42.3444 19.9234 42.1816 20.9058 42.1816 22.2745C42.1816 23.6432 42.3498 24.6311 42.6862 25.2382C43.0226 25.8343 43.538 26.1323 44.2325 26.1323C44.9486 26.1323 45.4695 25.8343 45.795 25.2382C46.1205 24.6422 46.2833 23.6543 46.2833 22.2745C46.2833 20.9058 46.1205 19.9234 45.795 19.3274C45.4695 18.7313 44.9486 18.4333 44.2325 18.4333ZM45.5671 11.9761L46.6088 14.1451L42.5885 15.6187L41.8561 14.1285L45.5671 11.9761Z" fill="white"/>
  <path d="M53.3379 16.5293L52.9636 23.6984H50.6523L50.278 16.5293H53.3379ZM51.8079 25.1389C52.242 25.1389 52.6109 25.2989 52.9147 25.619C53.2294 25.9281 53.3868 26.3034 53.3868 26.7449C53.3868 27.1864 53.2294 27.5617 52.9147 27.8707C52.6109 28.1798 52.242 28.3343 51.8079 28.3343C51.3739 28.3343 50.9996 28.1798 50.6849 27.8707C50.3811 27.5617 50.2291 27.1864 50.2291 26.7449C50.2291 26.3034 50.3811 25.9281 50.6849 25.619C50.9996 25.2989 51.3739 25.1389 51.8079 25.1389Z" fill="white"/>
  <defs>
    <linearGradient id="paint0_linear_139_847" x1="22.4521" y1="9.74522" x2="10.9933" y2="20.7321" gradientUnits="userSpaceOnUse">
      <stop stop-color="#FFA943"/>
      <stop offset="0.999214" stop-color="#A12323"/>
    </linearGradient>
    <linearGradient id="paint1_linear_139_847" x1="0.680431" y1="14.5983" x2="13.1502" y2="5.09431" gradientUnits="userSpaceOnUse">
      <stop stop-color="#E28D3E"/>
      <stop offset="0.9999" stop-color="#B84040"/>
      <stop offset="1" stop-color="#D81F1F" stop-opacity="0"/>
    </linearGradient>
  </defs>
</svg>
